<!--?xml version="1.0" encoding="utf-8"?-->
<!-- Generator: Adobe Illustrator 18.0.0, SVG Export Plug-In . SVG Version: 6.00 Build 0)  -->

<svg version="1.1" id="_x31_0" xmlns="http://www.w3.org/2000/svg" xmlns:xlink="http://www.w3.org/1999/xlink" x="0px" y="0px" viewBox="0 0 512 512" style="width: 48px; height: 48px; opacity: 1;" xml:space="preserve">
<style type="text/css">
	.st0{fill:#374149;}
</style>
<g>
	<path class="st0" d="M501.438,183.199c-0.161-0.543-0.298-1.09-0.462-1.629c-0.894-2.957-1.882-5.867-2.878-8.778
		c-0.379-1.106-0.726-2.218-1.122-3.316c-0.89-2.489-1.863-4.934-2.832-7.383c-0.578-1.469-1.121-2.945-1.726-4.402
		c-0.926-2.222-1.93-4.41-2.918-6.602c-0.723-1.605-1.41-3.222-2.168-4.812c-1.058-2.23-2.191-4.414-3.317-6.606
		c-0.75-1.473-1.469-2.961-2.254-4.418c-1.371-2.563-2.824-5.074-4.286-7.582c-0.586-1.016-1.144-2.047-1.746-3.054
		c-1.973-3.29-4.031-6.524-6.145-9.719c-0.121-0.183-0.23-0.371-0.351-0.55c-18.742-28.16-42.91-52.387-71.02-71.203
		c-0.015-0.012-0.035-0.023-0.05-0.035c-3.367-2.254-6.786-4.43-10.262-6.523c-0.676-0.406-1.371-0.782-2.051-1.184
		c-2.851-1.683-5.722-3.34-8.648-4.914c-0.95-0.516-1.922-0.985-2.883-1.485c-2.722-1.422-5.457-2.832-8.238-4.16
		c-0.886-0.422-1.793-0.805-2.683-1.218c-2.922-1.352-5.852-2.68-8.832-3.926c-0.578-0.238-1.168-0.453-1.75-0.691
		c-3.347-1.371-6.722-2.691-10.14-3.922c-0.031-0.012-0.062-0.02-0.094-0.031C315.649,5.375,286.637,0.043,256.371,0
		C114.985-0.203,0.203,114.246,0,255.629c-0.038,25.406,3.684,49.93,10.543,73.11c0.164,0.566,0.309,1.141,0.481,1.707
		c0.89,2.93,1.867,5.82,2.859,8.702c0.386,1.13,0.738,2.266,1.141,3.387c0.89,2.48,1.859,4.914,2.824,7.355
		c0.578,1.473,1.129,2.957,1.734,4.418c0.926,2.222,1.926,4.406,2.914,6.598c0.723,1.609,1.414,3.226,2.168,4.82
		c1.055,2.215,2.184,4.386,3.298,6.566c0.762,1.488,1.488,2.992,2.277,4.465c1.363,2.539,2.805,5.023,4.246,7.508
		c0.602,1.039,1.172,2.094,1.789,3.125c1.965,3.278,4.012,6.492,6.114,9.672c0.129,0.199,0.25,0.402,0.382,0.598
		c18.73,28.137,42.875,52.351,70.957,71.16c0.188,0.125,0.379,0.242,0.563,0.363c3.179,2.118,6.398,4.18,9.679,6.157
		c1.039,0.629,2.106,1.206,3.156,1.82c2.469,1.442,4.938,2.886,7.462,4.246c1.476,0.797,2.98,1.531,4.472,2.3
		c2.172,1.118,4.336,2.25,6.543,3.309c1.59,0.758,3.207,1.454,4.813,2.18c2.191,0.996,4.371,2.004,6.594,2.938
		c1.457,0.609,2.938,1.16,4.402,1.742c2.442,0.973,4.878,1.954,7.355,2.848c1.118,0.406,2.25,0.762,3.375,1.149
		c2.886,1,5.778,1.988,8.711,2.89c0.55,0.168,1.113,0.309,1.664,0.473c23.168,6.934,47.695,10.726,73.113,10.766
		C397.011,512.203,511.793,397.758,512,256.371C512.035,230.942,508.308,206.398,501.438,183.199z M128.035,230.906
		c0.008-5.523,4.492-9.992,10.016-9.985l222.726,0.325l13.273,0.019c5.524,0.008,9.993,4.492,9.985,10.016l-0.074,49.816
		c-0.008,5.523-4.488,9.992-10.012,9.984l-235.999-0.343c-5.524-0.008-9.996-4.492-9.985-10.016L128.035,230.906z" style="fill: rgb(255, 255, 255);"></path>
</g>
</svg>
