<?xml version="1.0" encoding="UTF-8" standalone="no"?> <!-- Created with Vectornator for iOS (http://vectornator.io/) --><!DOCTYPE svg PUBLIC "-//W3C//DTD SVG 1.1//EN" "http://www.w3.org/Graphics/SVG/1.1/DTD/svg11.dtd">
<svg height="100%" style="fill-rule:nonzero;clip-rule:evenodd;stroke-linecap:round;stroke-linejoin:round;" xmlns:xlink="http://www.w3.org/1999/xlink" xmlns="http://www.w3.org/2000/svg" xml:space="preserve" width="100%" xmlns:vectornator="http://vectornator.io" version="1.1" viewBox="0 0 74 30">
<metadata>
<vectornator:setting key="DimensionsVisible" value="1"/>
<vectornator:setting key="PencilOnly" value="0"/>
<vectornator:setting key="SnapToPoints" value="0"/>
<vectornator:setting key="OutlineMode" value="0"/>
<vectornator:setting key="CMYKEnabledKey" value="0"/>
<vectornator:setting key="RulersVisible" value="1"/>
<vectornator:setting key="SnapToEdges" value="0"/>
<vectornator:setting key="GuidesVisible" value="1"/>
<vectornator:setting key="DisplayWhiteBackground" value="0"/>
<vectornator:setting key="doHistoryDisabled" value="0"/>
<vectornator:setting key="SnapToGuides" value="1"/>
<vectornator:setting key="TimeLapseWatermarkDisabled" value="0"/>
<vectornator:setting key="Units" value="Points"/>
<vectornator:setting key="DynamicGuides" value="0"/>
<vectornator:setting key="IsolateActiveLayer" value="0"/>
<vectornator:setting key="SnapToGrid" value="0"/>
</metadata>
<defs/>
<g id="þÿ0ì0¤0ä0ü" vectornator:layerName="þÿ0ì0¤0ä0ü">
<path d="M5.30969+1.0669L6.12769+1.0669L7.92669+4.4579L8.38969+1.0669L9.30369+1.0669L8.62469+6.0549L7.82569+6.0549L6.00169+2.6269L5.53369+6.0549L4.63569+6.0549L5.30969+1.0669Z" fill-rule="evenodd" fill="#ffffff" opacity="1"/>
<path d="M17.9841+4.1118L17.5861+2.4688L16.7071+4.1118L17.9841+4.1118ZM17.3551+1.0668L18.1451+1.0668L19.3881+6.0548L18.4791+6.0548L18.2141+4.9938L16.2361+4.9938L15.6691+6.0548L14.6621+6.0548L17.3551+1.0668Z" fill-rule="evenodd" fill="#ffffff" opacity="1"/>
<path d="M30.3039+1.9986L29.5239+2.5046C29.2979+2.2466+29.0799+2.0676+28.8689+1.9666C28.6589+1.8666+28.4209+1.8166+28.1539+1.8166C27.5769+1.8166+27.1089+2.0476+26.7469+2.5116C26.4599+2.8796+26.3159+3.2886+26.3159+3.7386C26.3159+4.1816+26.4629+4.5536+26.7579+4.8546C27.0539+5.1556+27.4169+5.3056+27.8479+5.3056C28.1689+5.3056+28.4619+5.2276+28.7249+5.0726C28.9889+4.9166+29.2039+4.6836+29.3709+4.3736L27.8149+4.3736L27.9289+3.4886L30.4529+3.4886C30.4169+4.3136+30.1579+4.9676+29.6779+5.4536C29.1979+5.9376+28.5859+6.1796+27.8419+6.1796C27.0329+6.1796+26.3959+5.9006+25.9329+5.3396C25.5589+4.8896+25.3739+4.3536+25.3739+3.7316C25.3739+2.9746+25.6459+2.3206+26.1929+1.7686C26.7379+1.2166+27.3879+0.941599+28.1439+0.941599C28.4239+0.941599+28.6969+0.981599+28.9649+1.0636C29.2309+1.1446+29.4719+1.2596+29.6869+1.4076C29.9009+1.5536+30.1069+1.7506+30.3039+1.9986" fill-rule="evenodd" fill="#ffffff" opacity="1"/>
<path d="M39.2028+1.8262C38.8458+1.8262+38.5198+1.9132+38.2248+2.0862C37.9298+2.2582+37.6918+2.5082+37.5108+2.8312C37.3298+3.1562+37.2398+3.4922+37.2398+3.8372C37.2398+4.2462+37.3658+4.5932+37.6168+4.8782C37.8678+5.1632+38.2278+5.3052+38.6988+5.3052C39.2428+5.3052+39.7048+5.1132+40.0868+4.7292C40.4678+4.3452+40.6578+3.8782+40.6578+3.3282C40.6578+2.8742+40.5238+2.5102+40.2558+2.2372C39.9878+1.9632+39.6378+1.8262+39.2028+1.8262M39.2378+0.941199C39.9218+0.941199+40.4878+1.1612+40.9318+1.6022C41.3788+2.0432+41.5998+2.6032+41.5998+3.2812C41.5998+3.8012+41.4688+4.2912+41.2048+4.7512C40.9418+5.2112+40.5918+5.5642+40.1548+5.8102C39.7178+6.0562+39.2138+6.1802+38.6468+6.1802C37.9368+6.1802+37.3698+5.9702+36.9468+5.5502C36.5228+5.1292+36.3108+4.5752+36.3108+3.8882C36.3108+3.1082+36.5638+2.4382+37.0708+1.8782C37.6348+1.2532+38.3578+0.941199+39.2378+0.941199" fill-rule="evenodd" fill="#ffffff" opacity="1"/>
<path d="M47.3552+1.0669L48.3052+1.0669L49.0812+3.0639L50.4982+1.0669L51.5722+1.0669L49.4442+4.0609L49.1752+6.0549L48.2402+6.0549L48.5152+4.0609L47.3552+1.0669Z" fill-rule="evenodd" fill="#ffffff" opacity="1"/>
<path d="M60.0934+4.1118L59.6944+2.4688L58.8164+4.1118L60.0934+4.1118ZM59.4634+1.0668L60.2534+1.0668L61.4964+6.0548L60.5884+6.0548L60.3224+4.9938L58.3444+4.9938L57.7774+6.0548L56.7694+6.0548L59.4634+1.0668Z" fill-rule="evenodd" fill="#ffffff" opacity="1"/>
<path d="M69.4274+27.1446L0.64839+27.1446L0.4344+29.5876L69.0934+29.5876L69.4274+27.1446Z" fill-rule="evenodd" fill="#ffffff" opacity="1"/>
<path d="M67.6472+3.5142C67.6472+1.8292+69.0132+0.464199+70.6962+0.464199C72.3822+0.464199+73.7472+1.8292+73.7472+3.5142C73.7472+5.1972+72.3822+6.5632+70.6962+6.5632C69.0132+6.5632+67.6472+5.1972+67.6472+3.5142" fill-rule="evenodd" fill="#ffffff" opacity="1"/>
<path d="M56.8019+11.7735C57.9269+11.7735+58.6739+11.8235+59.0409+11.9235C59.4089+12.0235+59.6909+12.1995+59.8849+12.4505C60.0799+12.7025+60.1769+13.0145+60.1769+13.3865C60.1769+14.0405+59.9339+14.5295+59.4489+14.8565C58.9649+15.1825+57.9169+15.3495+56.3099+15.3565L56.8019+11.7735ZM62.1589+16.1225C62.8099+15.3365+63.1359+14.3965+63.1359+13.2995C63.1359+12.4095+62.9169+11.6415+62.4779+10.9925C62.0399+10.3435+61.3889+9.8365+60.5269+9.4705C59.8349+9.1765+58.6399+9.0295+56.9439+9.0295L53.0679+9.0295L53.0229+9.3625C53.0229+9.3625+54.1289+9.4625+53.9669+10.7015L52.0319+24.8565L55.0029+24.8565L55.9519+17.9495L56.1969+17.9495L59.5749+24.8565L62.6519+24.8565L59.2059+17.7625C60.5239+17.4545+61.5079+16.9075+62.1589+16.1225" fill-rule="evenodd" fill="#ffffff" opacity="1"/>
<path d="M67.903+9.0293L67.857+9.3623C67.857+9.3623+68.97+9.4633+68.799+10.7123L68.8+10.7093L66.895+24.8563L69.747+24.8563L71.933+9.0293L67.903+9.0293" fill-rule="evenodd" fill="#ffffff" opacity="1"/>
<path d="M43.7765+9.0293L43.7305+9.3623C43.7305+9.3623+44.8445+9.4633+44.6725+10.7123L44.6735+10.7093L43.5105+19.2233L38.8165+9.0293L35.0985+9.0293L35.0525+9.3623C35.0525+9.3623+36.1665+9.4633+35.9955+10.7123L35.9955+10.7113L34.0825+24.8563L36.9345+24.8563L38.3345+14.6133L43.0515+24.8563L45.6515+24.8563L47.8025+9.0293L43.7765+9.0293" fill-rule="evenodd" fill="#ffffff" opacity="1"/>
<path d="M25.8039+9.0293L25.7579+9.3623C25.7579+9.3623+26.8709+9.4633+26.6999+10.7123L26.6999+10.7113L25.6219+18.6053C25.4419+19.8973+25.2579+20.7593+25.0669+21.1933C24.8769+21.6273+24.6249+21.9373+24.3079+22.1233C23.8839+22.3753+23.3899+22.5003+22.8219+22.5003C22.1189+22.5003+21.5829+22.3343+21.2119+22.0003C20.8439+21.6663+20.6589+21.2023+20.6589+20.6073C20.6589+20.2553+20.7159+19.6533+20.8309+18.8003L22.1549+9.0293L18.0669+9.0293L18.0209+9.3623C18.0209+9.3623+19.1309+9.4633+18.9649+10.7073L18.0019+17.7553C17.8289+18.9893+17.7429+19.9223+17.7429+20.5533C17.7429+22.0083+18.1849+23.1573+19.0679+23.9963C19.9499+24.8353+21.1789+25.2553+22.7589+25.2553C23.9279+25.2553+24.9189+25.0343+25.7339+24.5933C26.5479+24.1523+27.1699+23.5083+27.5999+22.6623C28.0319+21.8163+28.3789+20.4213+28.6449+18.4763L29.9249+9.0293L25.8039+9.0293" fill-rule="evenodd" fill="#ffffff" opacity="1"/>
<path d="M9.32099+21.586C8.91199+21.937+8.26199+22.113+7.36699+22.113L5.58599+22.049L6.13299+17.982C7.32099+17.989+8.12499+18.064+8.54499+18.208C8.96499+18.351+9.30099+18.599+9.55399+18.95C9.80599+19.301+9.93199+19.7+9.93199+20.145C9.93199+20.754+9.72799+21.234+9.32099+21.586M6.96699+11.773C7.84199+11.773+8.42099+11.82+8.70699+11.913C8.99299+12.006+9.22299+12.186+9.39999+12.451C9.57499+12.716+9.66399+13.032+9.66399+13.398C9.66399+13.792+9.56499+14.151+9.36499+14.474C9.16699+14.796+8.92499+15.017+8.64199+15.136C8.35799+15.254+7.81899+15.313+7.02399+15.313L6.49299+15.313L6.96699+11.773ZM10.747+16.562C11.34+16.167+11.794+15.678+12.108+15.092C12.422+14.508+12.579+13.886+12.579+13.226C12.579+12.437+12.357+11.701+11.913+11.02C11.467+10.339+10.882+9.836+10.156+9.514C9.42999+9.191+8.31999+9.029+6.82499+9.029L3.24299+9.029L3.19799+9.363C3.19799+9.363+4.30799+9.463+4.13999+10.708L2.43999+23.148C2.22599+24.465+1.12499+24.523+1.12499+24.523L1.07999+24.857L7.67399+24.857C8.92099+24.857+9.87499+24.69+10.535+24.357C11.195+24.023+11.749+23.505+12.197+22.802C12.645+22.099+12.869+21.324+12.869+20.478C12.869+18.849+12.162+17.544+10.747+16.562" fill-rule="evenodd" fill="#ffffff" opacity="1"/>
</g>
</svg>
