<?xml version="1.0" encoding="UTF-8" standalone="no"?> <!-- Created with Vectornator for iOS (http://vectornator.io/) --><!DOCTYPE svg PUBLIC "-//W3C//DTD SVG 1.1//EN" "http://www.w3.org/Graphics/SVG/1.1/DTD/svg11.dtd">
<svg height="100%" style="fill-rule:nonzero;clip-rule:evenodd;stroke-linecap:round;stroke-linejoin:round;" version="1.1" viewBox="0 0 4467.48 2836.59" width="100%" xml:space="preserve" xmlns="http://www.w3.org/2000/svg" xmlns:vectornator="http://vectornator.io" xmlns:xlink="http://www.w3.org/1999/xlink">
<metadata>
<vectornator:setting key="IsTimeLapseWatermarkDisabled" value="false"/>
<vectornator:setting key="UndoHistoryDisabled" value="false"/>
<vectornator:setting key="VNDimensionsVisible" value="true"/>
<vectornator:setting key="VNSnapToGuides" value="true"/>
<vectornator:setting key="WDCMYKEnabledKey" value="false"/>
<vectornator:setting key="WDDisplayWhiteBackground" value="false"/>
<vectornator:setting key="WDDynamicGuides" value="false"/>
<vectornator:setting key="WDGuidesVisible" value="true"/>
<vectornator:setting key="WDIsolateActiveLayer" value="false"/>
<vectornator:setting key="WDOutlineMode" value="false"/>
<vectornator:setting key="WDRulersVisible" value="true"/>
<vectornator:setting key="WDSnapToEdges" value="false"/>
<vectornator:setting key="WDSnapToGrid" value="false"/>
<vectornator:setting key="WDSnapToPoints" value="false"/>
<vectornator:setting key="WDUnits" value="Pixels"/>
</metadata>
<defs/>
<g id="レイヤー 1" vectornator:layerName="レイヤー 1">
<path d="M1464.55 1668.13L1357.44 1975.56C1348.67 2000.71 1321.78 2014.2 1297.36 2005.69L1297.36 2005.69C1272.94 1997.18 1260.25 1969.9 1269.01 1944.75L1376.12 1637.32C1384.88 1612.18 1411.78 1598.69 1436.2 1607.19L1436.2 1607.19C1460.62 1615.7 1473.31 1642.99 1464.55 1668.13Z" fill="#e50079" opacity="1"/>
<path d="M1870.84 1518.94L2101.36 1748.81C2120.22 1767.62 2120.71 1797.7 2102.45 1816.01L2102.45 1816.01C2084.19 1834.32 2054.1 1833.92 2035.24 1815.12L1804.72 1585.25C1785.86 1566.44 1785.37 1536.36 1803.63 1518.04L1803.63 1518.04C1821.89 1499.73 1851.98 1500.13 1870.84 1518.94Z" fill="#e50079" opacity="1"/>
<path d="M2027.03 769.837L2274.56 827.39C2319.32 837.798 2346.33 886.147 2334.88 935.38L2334.88 935.38C2323.44 984.613 2277.87 1016.09 2233.1 1005.68L1985.58 948.126C1940.81 937.718 1913.8 889.369 1925.25 840.136L1925.25 840.136C1936.7 790.903 1982.27 759.429 2027.03 769.837Z" fill="#ee6900" opacity="1"/>
<path d="M2140.12 587.742L1925.9 855.25L1893.01 715.949C1890.13 703.621 1882.45 692.948 1871.68 686.292C1860.91 679.636 1847.93 677.544 1835.62 680.478L1015.68 874.061C1003.35 876.943 992.676 884.619 986.019 895.39C979.363 906.161 977.271 919.14 980.207 931.457L1099.37 1436.19C1102.25 1448.52 1109.93 1459.19 1120.7 1465.85C1131.47 1472.5 1144.45 1474.59 1156.77 1471.66L1451.27 1402.13L1323.42 1786.09C1315.1 1811.09 1328.61 1838.11 1353.61 1846.44C1378.62 1854.77 1405.63 1841.25 1413.96 1816.25L1560.42 1376.36L1588.28 1369.78L1916.04 1697.71C1934.67 1716.35 1964.88 1716.35 1983.51 1697.72C2002.15 1679.09 2002.16 1648.88 1983.52 1630.24L1697.42 1344.01L1976.71 1278.08C1989.03 1275.19 1999.71 1267.51 2006.36 1256.74C2013.02 1245.97 2015.11 1233 2012.18 1220.68L1979.29 1081.38L2290.53 1224.83L2140.12 587.742Z" fill="#e50079" opacity="1"/>
<path d="M2998.35 651.719C2720.33 569.03 2440.6 702.002 2373.98 948.543C2352.05 1029.72 2357.59 1113.36 2381.1 1191.92C2451.37 1426.2 2453.27 1545.47 2444.43 1658.82C2437.05 1753.82 2454.53 1782.45 2531.18 1805.25L2675.09 1848.05L2816.75 1890.19C2893.42 1912.99 2922.61 1898.22 2963.85 1813.31C3013.01 1711.97 3076.54 1612.15 3253.54 1451.41C3312.85 1397.49 3359.41 1329.34 3381.34 1248.16C3447.96 1001.62 3276.38 734.413 2998.35 651.719ZM2484.97 1832.44C2472.14 1828.62 2457.68 1834.52 2454.31 1847.01L2448.38 1868.95C2445.01 1881.43 2454.36 1894.42 2467.19 1898.23L2826.96 2005.24C2839.77 2009.05 2852 2002.48 2855.37 1990L2861.3 1968.06C2864.67 1955.58 2857.55 1943.25 2844.74 1939.44L2484.97 1832.44ZM2458.57 1930.14C2445.74 1926.32 2431.29 1932.21 2427.91 1944.72L2421.98 1966.65C2418.6 1979.17 2427.96 1992.12 2440.79 1995.94L2800.56 2102.94C2813.37 2106.75 2825.59 2100.22 2828.97 2087.7L2834.9 2065.77C2838.28 2053.26 2831.15 2040.95 2818.34 2037.14L2458.57 1930.14ZM2432.17 2027.84C2419.34 2024.03 2404.89 2029.89 2401.51 2042.41L2395.58 2064.35C2392.2 2076.85 2401.57 2089.82 2414.39 2093.64L2774.16 2200.64C2786.97 2204.45 2799.19 2197.9 2802.57 2185.4L2808.5 2163.46C2811.88 2150.94 2804.75 2138.66 2791.94 2134.85L2432.17 2027.84ZM2465.94 2145.59C2477.62 2190.25 2515.73 2231.48 2567.34 2246.83C2619.25 2262.27 2672.08 2248.54 2704.29 2216.48L2465.94 2145.59Z" fill="#ee6900" opacity="1"/>
<g opacity="1">
<path d="M1237.97 1041.16L1199.91 1049.83C1187.11 1052.74 1179.24 1054.21 1170.53 1054.88L1177.07 1083.58C1185.52 1080.34 1192.63 1078.4 1205.73 1075.41L1243.8 1066.75L1246.85 1080.16L1220.02 1086.27C1206.29 1089.4 1198.11 1090.93 1189.23 1092.3C1191.63 1099.96 1193.29 1105.81 1196.63 1120.48L1205.79 1160.73C1209.27 1176.02 1210.45 1182.64 1211.61 1190.58C1220.2 1187.97 1227.62 1185.95 1241.66 1182.76L1268.8 1176.58L1271.93 1190.31L1240.1 1197.55C1226.06 1200.75 1219.44 1201.93 1210.42 1202.67L1217.1 1232C1225.31 1229.14 1235.84 1226.42 1245.83 1224.14L1277.97 1216.83L1281.87 1233.99C1249.23 1243.39 1243.37 1245.05 1229.33 1248.25C1222.46 1249.81 1219.66 1250.45 1212.96 1251.32L1226.18 1283.43C1233.38 1280.47 1237.92 1278.78 1243.71 1276.81C1299.81 1259.44 1322.02 1251.76 1363.35 1235.79C1375.66 1240.86 1384.85 1246.64 1393.61 1254.82C1402.25 1235.13 1405.4 1225.88 1409.26 1208.27C1417.31 1220.55 1420.36 1226.74 1424.11 1240.33C1428.86 1239.58 1444.29 1236.72 1449.29 1235.58C1472.69 1230.26 1481.61 1223.3 1484.1 1208.29C1487.78 1188.42 1481.82 1143.5 1465.05 1062.65C1455.75 1017.51 1455.19 1015.01 1453.88 1003.49C1445.67 1006.35 1438.25 1008.36 1424.83 1011.42L1397.69 1017.6C1386.33 963.407 1386.33 963.407 1385.97 954.627L1350.09 962.797C1353.64 971.178 1355.09 976.099 1360.99 1002C1363.19 1011.67 1364.4 1016.97 1365.86 1024.84L1361.18 1025.91C1350.57 1028.33 1345.2 1029.22 1338.74 1029.71L1346.42 1063.4C1354.31 1060.62 1359.24 1059.17 1372.03 1056.26C1379.63 1096.86 1382.16 1116.64 1382.67 1140.48C1382.78 1168.35 1378.24 1195.97 1369.37 1218.99L1366.31 1205.57C1337.91 1216.31 1327.58 1219.97 1311.71 1225.22L1308.23 1209.94L1343.18 1201.98C1355.03 1199.28 1359.47 1198.6 1365.37 1198.57L1358.7 1169.24C1351.73 1171.81 1345.25 1173.61 1329.65 1177.16L1302.19 1183.41L1299.07 1169.69L1328.09 1163.08C1342.75 1159.74 1348.99 1158.32 1356.31 1157.31C1355.07 1153.32 1352.63 1144.04 1348.91 1129.13L1339.32 1087.01C1335.7 1071.1 1334.87 1066.03 1334 1059.34C1327.59 1061.45 1322.05 1063.04 1308.01 1066.24L1277.12 1073.27L1274.06 1059.86L1313.06 1050.98C1326.79 1047.85 1330.92 1047.24 1335.81 1047.11L1329.35 1018.72C1322.46 1021.6 1315.35 1023.54 1300.69 1026.88L1268.24 1034.27L1264.26 1016.8C1279.36 1011.06 1294.4 1005.01 1305.44 1000.2C1309.29 998.342 1319.23 994.438 1321.96 993.487L1297.42 972.164C1278.47 986.979 1226.3 1005.75 1165.22 1019.99C1173.56 1029.24 1177.33 1034.29 1181.82 1042.46C1204.94 1035.88 1213.53 1033.27 1234.63 1026.5L1237.97 1041.16ZM1252.18 1103.57L1255.16 1116.67L1228.02 1122.85L1225.03 1109.75L1252.18 1103.57ZM1282.45 1096.67L1309.59 1090.49L1312.57 1103.6L1285.43 1109.78L1282.45 1096.67ZM1260.35 1139.45L1263.48 1153.18L1236.33 1159.36L1233.2 1145.63L1260.35 1139.45ZM1290.61 1132.56L1317.76 1126.38L1320.89 1140.1L1293.74 1146.28L1290.61 1132.56ZM1427.88 1043.54C1429.91 1053.91 1430.34 1055.78 1432.23 1065.53C1437.67 1090.87 1437.67 1090.87 1439.84 1101.86C1446.48 1136.78 1448.6 1150.41 1450.18 1167.44C1453.04 1197.31 1451.71 1201.56 1437.67 1204.75C1430.81 1206.31 1425.98 1206.76 1409.5 1207.88C1419.02 1161.74 1417.95 1123.91 1404.17 1048.94L1427.88 1043.54Z" fill="#ffffff" opacity="1"/>
<path d="M1605.25 944.742L1611.57 972.512L1575.38 980.752C1564.15 983.309 1556.9 984.631 1549.51 985.329C1552.22 992.916 1553.81 998.462 1556.09 1008.45L1581.52 1120.15C1584.08 1131.38 1584.76 1135.82 1585.53 1143.52C1593.43 1140.74 1598.35 1139.29 1613.32 1135.88L1714.11 1112.93C1728.46 1109.67 1733.52 1108.84 1741.85 1107.93C1739.35 1101.28 1737.97 1096.67 1735.34 1085.13L1709.91 973.424C1707.64 963.44 1706.46 956.816 1705.83 949.739C1698.87 952.309 1691.76 954.255 1680.53 956.812L1643.4 965.266L1637.08 937.496L1725.07 917.463C1737.86 914.551 1752.04 911.978 1763.56 910.669L1755.74 876.347C1743.86 880.366 1731.83 883.76 1717.79 886.957L1511.86 933.842C1497.2 937.181 1485.51 939.185 1473.68 940.566L1481.5 974.887C1494 970.727 1505.41 967.474 1519.45 964.278L1605.25 944.742ZM1618.18 1001.53L1625.64 1034.29L1595.37 1041.18L1587.92 1008.42L1618.18 1001.53ZM1650.01 994.283L1681.52 987.108L1688.98 1019.87L1657.47 1027.04L1650.01 994.283ZM1632.03 1062.37L1640.7 1100.44L1610.43 1107.33L1601.77 1069.26L1632.03 1062.37ZM1663.86 1055.13L1695.37 1047.95L1704.04 1086.02L1672.53 1093.19L1663.86 1055.13ZM1726.84 951.192C1729.86 958.708 1731.74 965.501 1734.58 977.982L1767.47 1122.44L1569.03 1167.63L1536.28 1023.79C1533.08 1009.75 1531.9 1003.12 1531.2 995.733L1495.01 1003.97C1498.82 1014.92 1501.93 1025.7 1504.77 1038.18L1536.73 1178.59C1540.5 1195.12 1542.58 1207.12 1544.31 1220.51L1579.88 1212.41L1576.54 1197.75L1773.42 1152.92L1776.76 1167.59L1812.96 1159.35C1808.41 1146.6 1804.95 1134.26 1801.25 1118.04L1769.43 978.252C1766.94 967.332 1764.58 954.085 1763.34 942.88L1726.84 951.192Z" fill="#ffffff" opacity="1"/>
</g>
<path d="M3732.84 1416.38L3488 1348.29C3443.72 1335.98 3418.81 1286.52 3432.35 1237.82L3432.35 1237.82C3445.89 1189.12 3492.77 1159.63 3537.04 1171.94L3781.88 1240.03C3826.16 1252.34 3851.08 1301.8 3837.54 1350.5L3837.54 1350.5C3823.99 1399.2 3777.12 1428.7 3732.84 1416.38Z" fill="#ee6900" opacity="1"/>
<path d="M796.984 1513.65C818.824 1529.19 830.584 1539.27 848.224 1557.75C825.544 1572.87 811.684 1581.69 798.244 1589.25C768.004 1605.63 733.564 1620.33 697.444 1632.09C711.304 1647.21 717.184 1656.03 724.324 1674.09C762.124 1658.13 778.504 1650.57 804.124 1636.29L804.124 1727.43C804.124 1742.55 803.284 1756.41 801.604 1769.01L850.324 1769.01L850.324 1746.33L1010.76 1746.33L1010.76 1769.01L1058.64 1769.01C1056.96 1758.09 1056.12 1744.23 1056.12 1727.43L1056.12 1619.49C1056.12 1603.11 1056.54 1592.19 1058.22 1580.85C1048.14 1582.11 1039.74 1582.53 1022.94 1582.53L886.864 1582.53C936.424 1547.67 976.744 1509.03 1013.28 1461.15C1022.94 1448.55 1023.36 1448.13 1028.4 1441.83L1003.62 1415.37C992.704 1417.05 982.624 1417.47 966.664 1417.47L880.564 1417.47C887.704 1407.81 891.484 1402.77 902.404 1386.81L852.844 1374.63C828.064 1426.29 772.624 1476.69 703.744 1510.29C718.024 1522.89 725.164 1531.29 732.304 1545.57C778.924 1519.53 812.944 1493.49 845.704 1458.21L956.164 1458.21C928.864 1491.39 913.744 1506.93 884.344 1530.87C859.984 1508.61 859.144 1508.19 831.844 1488.87L796.984 1513.65ZM849.904 1623.69L1011.18 1623.69L1011.18 1706.43L849.904 1706.43L849.904 1623.69Z" fill="#000000" opacity="1" stroke="#ffffff" stroke-linecap="butt" stroke-linejoin="miter" stroke-width="70"/>
<path d="M1283.34 1450.23L1174.98 1450.23C1155.66 1450.23 1138.44 1449.39 1124.58 1447.71L1124.58 1497.69C1138.86 1496.01 1155.66 1495.17 1174.98 1495.17L1283.34 1495.17L1283.34 1567.41L1204.8 1567.41C1185.9 1567.41 1177.92 1566.99 1166.58 1565.73C1168.26 1577.49 1168.68 1588.83 1168.68 1605.21L1168.68 1720.71C1168.68 1739.61 1167.84 1754.31 1166.16 1767.33L1217.4 1767.33L1217.4 1745.49L1407.24 1745.49L1407.24 1767.33L1457.64 1767.33C1455.96 1755.57 1455.12 1741.29 1455.12 1720.71L1455.12 1605.21C1455.12 1587.99 1455.54 1577.49 1457.22 1565.73C1446.3 1566.99 1439.16 1567.41 1419.42 1567.41L1333.32 1567.41L1333.32 1495.17L1449.66 1495.17C1466.88 1495.17 1483.68 1496.01 1499.64 1497.69L1499.64 1447.71C1485.78 1449.39 1468.98 1450.23 1449.66 1450.23L1333.32 1450.23L1333.32 1418.73C1333.32 1401.09 1334.16 1391.85 1335.84 1380.51L1280.82 1380.51C1282.92 1391.43 1283.34 1400.67 1283.34 1418.73L1283.34 1450.23ZM1217.4 1611.51L1406.4 1611.51L1406.4 1701.81L1217.4 1701.81L1217.4 1611.51Z" fill="#000000" opacity="1" stroke="#ffffff" stroke-linecap="butt" stroke-linejoin="miter" stroke-width="70"/>
<path d="M1734.42 1653.09L1672.68 1653.09C1647.48 1653.09 1639.92 1652.67 1629 1651.41L1629 1691.73C1642.02 1690.47 1653.36 1690.05 1672.26 1690.05L1734.42 1690.05L1734.42 1720.71L1648.32 1720.71C1622.7 1720.71 1610.1 1720.29 1599.6 1718.61L1599.6 1761.03C1613.04 1759.35 1628.58 1758.51 1652.52 1758.51L1866.72 1758.51C1894.86 1758.51 1908.72 1758.93 1922.58 1761.03L1922.58 1718.61C1911.66 1720.29 1901.16 1720.71 1871.76 1720.71L1779.36 1720.71L1779.36 1690.05L1854.12 1690.05C1872.18 1690.05 1883.1 1690.47 1896.54 1691.73L1896.54 1651.41C1886.88 1652.67 1880.58 1653.09 1854.54 1653.09L1779.36 1653.09L1779.36 1618.65C1823.04 1615.29 1823.04 1615.29 1845.3 1613.61L1866.72 1640.49L1904.94 1618.65C1876.38 1587.15 1857.48 1567.83 1841.52 1553.13L1868.82 1553.13C1890.66 1553.13 1899.9 1553.55 1913.34 1555.23L1913.34 1514.49C1901.58 1516.17 1891.08 1516.59 1864.62 1516.59L1618.5 1516.59L1618.92 1494.33L1860.42 1494.33C1878.06 1494.33 1889.82 1494.75 1905.36 1495.59C1904.1 1484.67 1904.1 1479.63 1904.1 1465.35L1904.1 1425.87C1904.1 1411.17 1904.1 1405.29 1905.36 1392.27C1892.34 1393.95 1880.58 1394.37 1859.16 1394.37L1628.58 1394.37C1602.12 1394.37 1588.26 1393.95 1573.56 1391.85C1575.24 1405.71 1576.08 1418.73 1576.08 1439.73C1576.08 1538.43 1571.88 1599.75 1562.22 1645.95C1555.5 1680.39 1547.52 1701.39 1531.56 1728.27C1547.1 1740.87 1556.76 1750.53 1568.94 1766.49C1586.58 1734.57 1595.4 1711.05 1602.96 1672.83C1610.94 1636.29 1614.3 1605.63 1617.24 1553.13L1695.36 1553.13C1689.48 1565.73 1684.02 1574.97 1675.2 1587.99C1668.9 1587.99 1658.4 1587.99 1643.7 1587.99C1636.14 1587.99 1634.88 1587.99 1625.22 1587.15L1631.52 1627.89C1638.24 1626.63 1657.98 1625.37 1701.24 1622.85C1731.9 1621.17 1731.9 1621.17 1734.42 1621.17L1734.42 1653.09ZM1814.22 1553.13L1794.9 1562.37C1805.82 1571.61 1809.6 1574.97 1817.16 1582.53C1799.52 1583.79 1789.02 1584.63 1785.66 1584.63C1776.84 1585.47 1755.42 1585.89 1721.82 1587.15C1729.38 1576.23 1734 1568.25 1742.4 1553.13L1814.22 1553.13ZM1619.34 1458.21L1619.34 1430.91L1860.42 1430.91L1860.42 1458.21L1619.34 1458.21Z" fill="#000000" opacity="1" stroke="#ffffff" stroke-linecap="butt" stroke-linejoin="miter" stroke-width="70"/>
<path d="M2291.76 1488.87C2313.6 1488.87 2327.88 1489.71 2343 1491.39L2343 1443.93C2327.46 1446.03 2312.76 1446.87 2290.08 1446.87L2172.9 1446.87L2172.9 1416.63C2172.9 1404.45 2173.74 1394.37 2175.84 1384.71L2122.5 1384.71C2124.6 1394.37 2125.44 1404.45 2125.44 1417.05L2125.44 1446.87L2013.72 1446.87C1991.46 1446.87 1977.18 1446.03 1961.22 1443.93L1961.22 1491.39C1976.34 1489.71 1992.72 1488.87 2012.46 1488.87L2032.2 1488.87C2046.48 1531.71 2054.04 1549.77 2070 1577.07C2084.28 1601.43 2099.4 1622.01 2119.56 1644.27C2076.3 1679.97 2029.68 1701.81 1954.5 1722.39C1966.68 1737.51 1973.82 1749.27 1981.38 1767.33C2021.28 1753.89 2045.22 1744.23 2070.84 1731.21C2100.66 1715.67 2129.22 1696.77 2153.16 1676.61C2199.78 1716.51 2251.02 1743.81 2322.42 1767.33C2331.66 1744.65 2337.54 1734.57 2351.4 1718.19C2283.78 1703.07 2233.38 1680.39 2187.18 1644.27C2206.92 1621.59 2222.46 1599.75 2236.74 1573.29C2251.86 1545.15 2258.58 1527.93 2269.5 1488.87L2291.76 1488.87ZM2219.94 1488.87C2209.86 1522.89 2203.56 1537.59 2190.96 1560.27C2179.62 1580.01 2167.44 1596.81 2152.74 1613.19C2136.78 1596.39 2125.44 1581.69 2112.42 1560.69C2097.72 1535.91 2091 1520.79 2080.5 1488.87L2219.94 1488.87Z" fill="#000000" opacity="1" stroke="#ffffff" stroke-linecap="butt" stroke-linejoin="miter" stroke-width="70"/>
<path d="M2613.48 1715.25L2538.3 1715.25C2516.46 1715.25 2507.22 1714.83 2495.88 1713.15L2495.88 1758.09C2510.16 1756.41 2521.08 1755.99 2543.34 1755.99L2720.16 1755.99C2742.84 1755.99 2754.18 1756.41 2767.62 1758.09L2767.62 1713.15C2756.28 1714.83 2745.36 1715.25 2723.1 1715.25L2655.48 1715.25L2655.48 1671.99L2709.66 1671.99C2731.08 1671.99 2741.58 1672.41 2753.76 1674.09L2753.76 1630.83C2741.58 1632.51 2732.34 1632.93 2709.24 1632.93L2655.48 1632.93L2655.48 1598.49L2703.78 1598.49C2728.98 1598.49 2735.7 1598.49 2749.56 1599.75C2748.3 1587.57 2747.88 1572.87 2747.88 1543.47L2747.88 1454.01C2747.88 1428.39 2748.3 1408.65 2749.56 1396.47C2739.06 1398.15 2726.46 1398.57 2695.38 1398.57L2579.46 1398.57C2552.16 1398.57 2538.72 1398.15 2522.76 1396.47C2524.44 1410.33 2524.86 1424.19 2524.86 1452.75L2524.86 1547.67C2524.02 1590.09 2524.02 1590.09 2523.18 1599.75C2535.78 1598.91 2545.44 1598.49 2573.58 1598.49L2613.48 1598.49L2613.48 1632.93L2566.44 1632.93C2542.08 1632.93 2533.68 1632.51 2523.18 1630.83L2523.18 1673.67C2534.1 1672.41 2542.92 1671.99 2566.86 1671.99L2613.48 1671.99L2613.48 1715.25ZM2613.48 1439.31L2613.48 1481.31L2566.86 1481.31L2566.86 1439.31L2613.48 1439.31ZM2655.48 1439.31L2704.2 1439.31L2704.2 1481.31L2655.48 1481.31L2655.48 1439.31ZM2613.48 1516.59L2613.48 1559.01L2566.86 1559.01L2566.86 1516.59L2613.48 1516.59ZM2655.48 1516.59L2704.2 1516.59L2704.2 1559.01L2655.48 1559.01L2655.48 1516.59ZM2426.58 1443.51L2426.58 1525.41L2413.56 1525.41C2400.54 1525.41 2394.24 1524.99 2384.16 1523.31L2384.16 1566.57C2393.82 1564.89 2400.54 1564.47 2412.72 1564.47L2426.58 1564.47L2426.58 1664.43C2398.02 1674.51 2389.2 1677.45 2374.92 1680.39L2386.26 1727.85C2390.46 1726.17 2392.56 1725.33 2394.66 1724.49C2459.76 1698.03 2476.14 1690.89 2512.68 1672.83L2511.42 1628.31C2492.94 1637.55 2487.9 1639.65 2470.26 1647.21L2470.26 1564.47L2479.92 1564.47C2489.58 1564.47 2497.98 1564.89 2506.38 1566.15L2506.38 1523.31C2497.14 1524.99 2490.84 1525.41 2479.92 1525.41L2470.26 1525.41L2470.26 1443.51L2482.86 1443.51C2494.62 1443.51 2503.44 1443.93 2513.94 1445.19L2513.94 1400.25C2503.44 1402.35 2493.36 1402.77 2476.56 1402.77L2417.34 1402.77C2400.12 1402.77 2389.2 1401.93 2379.12 1400.25L2379.12 1445.61C2389.62 1443.93 2397.18 1443.51 2410.62 1443.51L2426.58 1443.51Z" fill="#000000" opacity="1" stroke="#ffffff" stroke-linecap="butt" stroke-linejoin="miter" stroke-width="70"/>
<path d="M3124.2 1528.35C3147.3 1528.35 3159.9 1529.19 3176.7 1531.29L3176.7 1477.95C3162.42 1480.05 3147.72 1480.89 3123.78 1480.89L3012.48 1480.89C3012.9 1465.35 3013.32 1455.69 3013.32 1438.47C3013.74 1410.33 3014.16 1404.03 3016.26 1389.33L2960.82 1389.33C2962.5 1401.09 2963.76 1413.69 2963.76 1431.33C2963.76 1453.17 2963.34 1459.89 2962.5 1480.89L2859.6 1480.89C2834.82 1480.89 2819.7 1480.05 2806.68 1477.95L2806.68 1531.29C2820.54 1529.19 2832.72 1528.35 2859.18 1528.35L2958.3 1528.35C2948.22 1599.75 2920.08 1646.79 2863.8 1686.69C2842.8 1701.39 2826 1710.21 2795.76 1722.39C2809.2 1737.51 2818.02 1750.53 2825.16 1766.49C2866.74 1748.43 2896.98 1728.69 2925.54 1700.55C2959.14 1667.37 2981.4 1631.25 2994 1587.99C3009.54 1627.05 3030.12 1660.65 3057.42 1689.63C3087.24 1721.97 3116.22 1743.39 3161.16 1766.49C3171.66 1743.81 3177.54 1734.99 3191.82 1718.19C3141.84 1697.61 3106.98 1673.67 3075.9 1638.39C3048.18 1606.89 3025.92 1566.15 3015.42 1528.35L3124.2 1528.35Z" fill="#000000" opacity="1" stroke="#ffffff" stroke-linecap="butt" stroke-linejoin="miter" stroke-width="70"/>
<path d="M3390.06 1653.93L3390.06 1716.09C3390.06 1724.49 3387.12 1725.75 3368.64 1725.75C3355.62 1725.75 3336.72 1724.49 3316.56 1721.55C3323.7 1736.67 3325.8 1743.81 3330.42 1766.07C3352.26 1767.33 3366.12 1767.75 3371.58 1767.75C3409.38 1767.75 3423.66 1764.39 3430.8 1753.89C3435 1748.01 3436.26 1742.13 3436.26 1727.43L3436.26 1653.93L3545.46 1653.93C3567.3 1653.93 3585.36 1654.77 3597.54 1656.45L3597.54 1609.83C3584.94 1611.93 3566.46 1612.77 3545.88 1612.77L3436.26 1612.77L3436.26 1612.35C3469.02 1592.19 3490.44 1576.65 3520.26 1551.03C3528.24 1544.31 3528.24 1544.31 3535.38 1538.43L3512.28 1512.81C3504.72 1514.07 3496.74 1514.49 3480.36 1514.49L3341.34 1514.49C3323.28 1514.49 3311.52 1514.07 3298.92 1512.39L3298.92 1554.39C3312.36 1553.13 3323.7 1552.71 3340.92 1552.71L3456.42 1552.71C3438.78 1568.25 3424.92 1577.49 3406.86 1586.73L3388.8 1586.73C3389.64 1593.87 3390.06 1601.43 3390.06 1609.83L3390.06 1612.77L3275.82 1612.77C3256.08 1612.77 3239.28 1611.93 3225 1609.83L3225 1656.45C3238.02 1654.77 3254.4 1653.93 3276.24 1653.93L3390.06 1653.93ZM3277.92 1446.45C3249.78 1446.45 3247.26 1446.45 3228.36 1444.77C3229.62 1455.69 3230.04 1464.51 3230.04 1479.63L3230.04 1518.27C3230.04 1531.29 3229.62 1540.95 3227.94 1550.61L3273.72 1550.61L3273.72 1485.51L3547.56 1485.51L3547.56 1550.61L3593.34 1550.61C3592.08 1540.53 3591.24 1530.03 3591.24 1518.69L3591.24 1479.63C3591.24 1463.67 3591.66 1455.27 3592.92 1444.77C3577.8 1446.03 3569.82 1446.45 3541.26 1446.45L3522.36 1446.45C3532.02 1433.43 3544.2 1414.11 3553.86 1396.05L3508.5 1383.45C3501.36 1403.19 3486.66 1429.65 3474.06 1446.45L3438.36 1446.45C3429.12 1419.57 3426.6 1413.69 3409.38 1381.35L3365.7 1393.53C3377.46 1412.01 3384.18 1426.71 3391.32 1446.45L3346.8 1446.45C3332.94 1419.57 3323.28 1404.45 3308.58 1386.39L3266.16 1398.99C3282.54 1419.57 3288 1427.97 3297.66 1446.45L3277.92 1446.45Z" fill="#000000" opacity="1" stroke="#ffffff" stroke-linecap="butt" stroke-linejoin="miter" stroke-width="70"/>
<g opacity="1">
<path d="M2543.28 987.809C2540.21 996.589 2538.89 1000.21 2536.52 1005.2C2523.58 1031.85 2503.48 1051.89 2476.8 1064.48C2457.03 1073.66 2442.26 1077.9 2421.18 1079.76C2429.61 1095.01 2432.69 1103.15 2435.42 1116.18C2476.83 1107.95 2507.67 1093.51 2532.42 1069.77C2553.92 1049.46 2566.89 1028.79 2578.16 997.37L2637.41 1013.62C2636.73 1016.08 2636.14 1018.24 2635.63 1020.1C2635.12 1021.95 2634.7 1023.49 2634.36 1024.73L2632.5 1031.52C2623.7 1063.61 2607.6 1102.99 2600.43 1110.98C2596.38 1114.85 2592.65 1115.15 2581.23 1112.02C2572.28 1109.57 2559.12 1104.3 2544.99 1097.77C2546.4 1114.42 2546.53 1122.42 2544.35 1136.42C2564.77 1143.01 2569.62 1144.68 2575.79 1146.37C2603.26 1153.9 2615.56 1152.62 2626.07 1140.91C2638.27 1126.67 2656.88 1079.34 2674.4 1015.46C2675.84 1010.22 2676.09 1009.29 2677.27 1004.97C2687.21 1021.96 2693.15 1030.56 2706.66 1047.87C2718.74 1035.25 2722.14 1032.53 2739.25 1020.97C2707.44 985.7 2688.52 950.649 2678.3 908.031C2674.9 893.825 2673.59 886.498 2673.63 877.882L2635.73 881.76C2636.88 886.056 2638.27 893.074 2638.66 896.498C2644.06 928.838 2653.43 957.618 2668.34 987.921C2660.85 986.199 2656.53 985.014 2649.13 982.984L2535.56 951.846C2529.38 950.154 2527.84 949.731 2519.68 946.829C2546.08 929.183 2571.82 906.709 2589.93 885.459C2595.91 878.142 2598.22 875.787 2602.57 872.004L2569.18 848.581C2565.1 857.416 2559.42 864.818 2548.29 876.366C2518.47 907.675 2488.38 926.635 2442.84 942.684C2451.07 956.223 2455.94 967.512 2458.31 979.443C2477.74 971.498 2487.32 966.824 2506.28 955.764L2500.27 977.675C2508.55 978.949 2516.43 980.447 2526.93 983.324L2543.28 987.809Z" fill="#ffffff" opacity="1"/>
<path d="M2869.65 936.27C2868.97 938.739 2868.38 940.899 2868.04 942.134C2865.25 952.318 2857.62 970.466 2842.92 1002.27C2825.27 1000.09 2786.92 993.553 2775.5 990.423L2769.22 1027.85C2780.16 1027.87 2810.92 1030.66 2827.16 1033.12C2802.72 1073.87 2794.85 1085.65 2773.28 1112.25C2756.36 1132.83 2737.92 1151.67 2725.28 1161.47L2755.66 1191.04C2758.05 1188.38 2758.14 1188.07 2759.57 1186.47C2764.35 1181.14 2764.35 1181.14 2766.74 1178.48C2794.54 1147.28 2808.29 1129.81 2827.55 1101.91C2839.84 1083.72 2845.15 1075.22 2864.74 1040.11C2872 1041.44 2876.72 1042.4 2882.89 1044.09C2907.27 1050.77 2912.08 1061.05 2904.3 1089.44C2897.11 1115.68 2886.32 1142.91 2876.98 1157.61C2868.21 1171.46 2861.66 1175.97 2852.71 1173.52C2841.91 1170.55 2825.59 1161.1 2810.95 1149.13C2810.12 1161.84 2809.05 1168.18 2806.85 1176.2C2806 1179.29 2804.51 1183.53 2802.51 1189.61C2821.41 1201.76 2833.38 1207.7 2847.58 1211.59C2863.94 1216.08 2874.21 1214.91 2885.64 1207.1C2905.11 1194.19 2925.65 1154.36 2940.21 1101.28C2947.91 1073.2 2947.96 1057.28 2940.68 1042.68C2933.46 1029.09 2919.86 1019.38 2899.49 1013.8C2893.62 1012.19 2889.22 1011.32 2880.1 1009.48C2882.13 1005.72 2882.3 1005.1 2885.39 998.654C2896.06 976.692 2896.06 976.692 2898.76 970.465C2901.04 965.782 2901.77 964.323 2903.49 960.48C2905.04 957.255 2906.89 954.114 2908.58 951.59L2869.65 936.27ZM2963.88 1025.81C2974.07 1045.53 2980.06 1062.43 2984.9 1088.32C2990.29 1114.68 2991.8 1136.99 2990.39 1165.14L3030.48 1156.89C3030.24 1105.72 3020.86 1063.67 2999.9 1019.1L2963.88 1025.81Z" fill="#ffffff" opacity="1"/>
<path d="M3171.99 1153.88C3177.69 1152.46 3177.69 1152.46 3186.84 1149.32C3194.11 1147 3220.9 1136.43 3227.73 1133.33C3240.67 1127.25 3268.7 1113.37 3288.02 1103.4C3298.86 1097.75 3301.53 1096.49 3307.54 1095.15L3295.85 1062.75C3290.24 1063.86 3286.67 1063.55 3275.62 1061.51C3245.09 1055.47 3207.02 1046.69 3180.79 1039.49C3163.81 1034.84 3155.03 1031.77 3144.88 1027.66L3136.27 1065.11C3142.38 1065.8 3144.63 1066.08 3151.5 1067.63C3208.04 1080.48 3228.13 1084.66 3240.28 1086.33L3240.5 1086.73C3238.14 1088.07 3234.21 1090.31 3233.42 1090.76C3203.46 1108.09 3153.86 1131.65 3119.15 1145.7C3094.55 1155.54 3079.92 1160.49 3067.68 1162.78L3079.53 1201.86C3125.79 1178.37 3175.84 1172.52 3220.89 1184.87C3258.23 1195.11 3277.68 1217.37 3271.08 1241.44C3265.08 1263.35 3250.33 1273.57 3222.09 1276.12C3221.1 1261.58 3219.57 1253.86 3215.51 1244.45C3207.03 1224.54 3190.66 1210.43 3169.06 1204.51C3138.2 1196.04 3110.9 1208.47 3103.88 1234.08C3100.07 1247.97 3103.3 1262.79 3112.66 1274.65C3122.47 1287.29 3142.72 1298.15 3168.64 1305.26C3197.03 1313.05 3224.96 1314.07 3248.15 1308.15C3279.84 1300.25 3300.78 1280.77 3308.82 1251.45C3320.41 1209.17 3293.91 1172.71 3241.14 1158.24C3217.99 1151.89 3203.57 1151.26 3172.44 1154.67L3171.99 1153.88ZM3186.31 1275.93C3177.33 1274.79 3175.78 1274.37 3169.92 1272.76C3147.08 1266.5 3135.14 1255.6 3138.53 1243.25C3140.89 1234.61 3149.52 1231 3160.63 1234.05C3177.91 1238.79 3186.59 1253.11 3186.31 1275.93Z" fill="#ffffff" opacity="1"/>
</g>
<g opacity="1">
<path d="M2005.1 904.599C2015.02 902.359 2029.74 900.439 2058.22 898.199C2120.3 893.719 2140.14 891.799 2166.06 887.959C2145.26 898.519 2133.74 907.159 2121.58 920.279C2102.06 941.399 2091.18 968.279 2091.18 995.479C2091.18 1028.76 2107.5 1055.96 2136.94 1072.6C2156.46 1083.48 2176.62 1089.24 2211.82 1093.72C2217.9 1094.68 2218.54 1094.68 2222.7 1095.64L2228.46 1052.12C2225.26 1052.44 2222.38 1052.44 2222.06 1052.44C2210.54 1052.44 2190.06 1048.92 2174.38 1044.12C2147.5 1036.12 2131.82 1016.92 2131.82 991.959C2131.82 959.639 2155.82 927.639 2196.46 906.519C2216.94 895.639 2240.62 889.239 2259.82 889.239C2263.02 889.239 2263.02 889.239 2266.54 889.559L2264.3 848.919C2259.18 850.199 2257.58 850.199 2231.34 851.479C2145.9 855.639 2091.18 858.519 2067.82 859.799C2020.78 862.999 2020.78 862.999 2015.02 862.999C2013.42 862.999 2009.9 862.999 2002.86 862.679L2005.1 904.599ZM2200.94 935.319C2215.02 950.679 2223.98 963.479 2234.54 982.999L2256.94 971.159C2246.06 951.319 2237.42 939.159 2223.34 924.119L2200.94 935.319ZM2295.02 950.359C2285.1 932.119 2276.14 919.959 2261.74 905.239L2240.3 916.439C2252.78 930.199 2263.34 945.239 2272.94 962.839L2295.02 950.359Z" fill="#ffffff" opacity="1"/>
</g>
<path d="M3159.07 289.075L3101.21 536.533C3090.75 581.285 3042.37 608.235 2993.15 596.728L2993.15 596.728C2943.93 585.221 2912.51 539.614 2922.97 494.863L2980.83 247.405C2991.29 202.653 3039.67 175.703 3088.89 187.21L3088.89 187.21C3138.11 198.717 3169.53 244.324 3159.07 289.075Z" fill="#ee6900" opacity="1"/>
<path d="M3680.63 744.552L3467.97 883.689C3429.51 908.851 3375.9 894.96 3348.23 852.663L3348.23 852.663C3320.55 810.365 3329.29 755.678 3367.75 730.516L3580.41 591.379C3618.87 566.217 3672.48 580.108 3700.15 622.405L3700.15 622.405C3727.83 664.703 3719.09 719.39 3680.63 744.552Z" fill="#ee6900" opacity="1"/>
<path d="M2511.71 305.35L2626.45 532.104C2647.2 573.112 2627.46 624.856 2582.36 647.677L2582.36 647.677C2537.26 670.499 2483.87 655.756 2463.12 614.749L2348.38 387.995C2327.63 346.987 2347.37 295.244 2392.48 272.422L2392.48 272.422C2437.58 249.601 2490.96 264.343 2511.71 305.35Z" fill="#ee6900" opacity="1"/>
<g opacity="1">
<path d="M800.611 1511.59C822.451 1527.13 834.211 1537.21 851.851 1555.69C829.171 1570.81 815.311 1579.63 801.871 1587.19C771.631 1603.57 737.191 1618.27 701.071 1630.03C714.931 1645.15 720.811 1653.97 727.951 1672.03C765.751 1656.07 782.131 1648.51 807.751 1634.23L807.751 1725.37C807.751 1740.49 806.911 1754.35 805.231 1766.95L853.951 1766.95L853.951 1744.27L1014.39 1744.27L1014.39 1766.95L1062.27 1766.95C1060.59 1756.03 1059.75 1742.17 1059.75 1725.37L1059.75 1617.43C1059.75 1601.05 1060.17 1590.13 1061.85 1578.79C1051.77 1580.05 1043.37 1580.47 1026.57 1580.47L890.491 1580.47C940.051 1545.61 980.371 1506.97 1016.91 1459.09C1026.57 1446.49 1026.99 1446.07 1032.03 1439.77L1007.25 1413.31C996.331 1414.99 986.251 1415.41 970.291 1415.41L884.191 1415.41C891.331 1405.75 895.111 1400.71 906.031 1384.75L856.471 1372.57C831.691 1424.23 776.251 1474.63 707.371 1508.23C721.651 1520.83 728.791 1529.23 735.931 1543.51C782.551 1517.47 816.571 1491.43 849.331 1456.15L959.791 1456.15C932.491 1489.33 917.371 1504.87 887.971 1528.81C863.611 1506.55 862.771 1506.13 835.471 1486.81L800.611 1511.59ZM853.531 1621.63L1014.81 1621.63L1014.81 1704.37L853.531 1704.37L853.531 1621.63Z" fill="#000000" opacity="1"/>
<path d="M1286.97 1448.17L1178.61 1448.17C1159.29 1448.17 1142.07 1447.33 1128.21 1445.65L1128.21 1495.63C1142.49 1493.95 1159.29 1493.11 1178.61 1493.11L1286.97 1493.11L1286.97 1565.35L1208.43 1565.35C1189.53 1565.35 1181.55 1564.93 1170.21 1563.67C1171.89 1575.43 1172.31 1586.77 1172.31 1603.15L1172.31 1718.65C1172.31 1737.55 1171.47 1752.25 1169.79 1765.27L1221.03 1765.27L1221.03 1743.43L1410.87 1743.43L1410.87 1765.27L1461.27 1765.27C1459.59 1753.51 1458.75 1739.23 1458.75 1718.65L1458.75 1603.15C1458.75 1585.93 1459.17 1575.43 1460.85 1563.67C1449.93 1564.93 1442.79 1565.35 1423.05 1565.35L1336.95 1565.35L1336.95 1493.11L1453.29 1493.11C1470.51 1493.11 1487.31 1493.95 1503.27 1495.63L1503.27 1445.65C1489.41 1447.33 1472.61 1448.17 1453.29 1448.17L1336.95 1448.17L1336.95 1416.67C1336.95 1399.03 1337.79 1389.79 1339.47 1378.45L1284.45 1378.45C1286.55 1389.37 1286.97 1398.61 1286.97 1416.67L1286.97 1448.17ZM1221.03 1609.45L1410.03 1609.45L1410.03 1699.75L1221.03 1699.75L1221.03 1609.45Z" fill="#000000" opacity="1"/>
<path d="M1738.05 1651.03L1676.31 1651.03C1651.11 1651.03 1643.55 1650.61 1632.63 1649.35L1632.63 1689.67C1645.65 1688.41 1656.99 1687.99 1675.89 1687.99L1738.05 1687.99L1738.05 1718.65L1651.95 1718.65C1626.33 1718.65 1613.73 1718.23 1603.23 1716.55L1603.23 1758.97C1616.67 1757.29 1632.21 1756.45 1656.15 1756.45L1870.35 1756.45C1898.49 1756.45 1912.35 1756.87 1926.21 1758.97L1926.21 1716.55C1915.29 1718.23 1904.79 1718.65 1875.39 1718.65L1782.99 1718.65L1782.99 1687.99L1857.75 1687.99C1875.81 1687.99 1886.73 1688.41 1900.17 1689.67L1900.17 1649.35C1890.51 1650.61 1884.21 1651.03 1858.17 1651.03L1782.99 1651.03L1782.99 1616.59C1826.67 1613.23 1826.67 1613.23 1848.93 1611.55L1870.35 1638.43L1908.57 1616.59C1880.01 1585.09 1861.11 1565.77 1845.15 1551.07L1872.45 1551.07C1894.29 1551.07 1903.53 1551.49 1916.97 1553.17L1916.97 1512.43C1905.21 1514.11 1894.71 1514.53 1868.25 1514.53L1622.13 1514.53L1622.55 1492.27L1864.05 1492.27C1881.69 1492.27 1893.45 1492.69 1908.99 1493.53C1907.73 1482.61 1907.73 1477.57 1907.73 1463.29L1907.73 1423.81C1907.73 1409.11 1907.73 1403.23 1908.99 1390.21C1895.97 1391.89 1884.21 1392.31 1862.79 1392.31L1632.21 1392.31C1605.75 1392.31 1591.89 1391.89 1577.19 1389.79C1578.87 1403.65 1579.71 1416.67 1579.71 1437.67C1579.71 1536.37 1575.51 1597.69 1565.85 1643.89C1559.13 1678.33 1551.15 1699.33 1535.19 1726.21C1550.73 1738.81 1560.39 1748.47 1572.57 1764.43C1590.21 1732.51 1599.03 1708.99 1606.59 1670.77C1614.57 1634.23 1617.93 1603.57 1620.87 1551.07L1698.99 1551.07C1693.11 1563.67 1687.65 1572.91 1678.83 1585.93C1672.53 1585.93 1662.03 1585.93 1647.33 1585.93C1639.77 1585.93 1638.51 1585.93 1628.85 1585.09L1635.15 1625.83C1641.87 1624.57 1661.61 1623.31 1704.87 1620.79C1735.53 1619.11 1735.53 1619.11 1738.05 1619.11L1738.05 1651.03ZM1817.85 1551.07L1798.53 1560.31C1809.45 1569.55 1813.23 1572.91 1820.79 1580.47C1803.15 1581.73 1792.65 1582.57 1789.29 1582.57C1780.47 1583.41 1759.05 1583.83 1725.45 1585.09C1733.01 1574.17 1737.63 1566.19 1746.03 1551.07L1817.85 1551.07ZM1622.97 1456.15L1622.97 1428.85L1864.05 1428.85L1864.05 1456.15L1622.97 1456.15Z" fill="#000000" opacity="1"/>
<path d="M2295.39 1486.81C2317.23 1486.81 2331.51 1487.65 2346.63 1489.33L2346.63 1441.87C2331.09 1443.97 2316.39 1444.81 2293.71 1444.81L2176.53 1444.81L2176.53 1414.57C2176.53 1402.39 2177.37 1392.31 2179.47 1382.65L2126.13 1382.65C2128.23 1392.31 2129.07 1402.39 2129.07 1414.99L2129.07 1444.81L2017.35 1444.81C1995.09 1444.81 1980.81 1443.97 1964.85 1441.87L1964.85 1489.33C1979.97 1487.65 1996.35 1486.81 2016.09 1486.81L2035.83 1486.81C2050.11 1529.65 2057.67 1547.71 2073.63 1575.01C2087.91 1599.37 2103.03 1619.95 2123.19 1642.21C2079.93 1677.91 2033.31 1699.75 1958.13 1720.33C1970.31 1735.45 1977.45 1747.21 1985.01 1765.27C2024.91 1751.83 2048.85 1742.17 2074.47 1729.15C2104.29 1713.61 2132.85 1694.71 2156.79 1674.55C2203.41 1714.45 2254.65 1741.75 2326.05 1765.27C2335.29 1742.59 2341.17 1732.51 2355.03 1716.13C2287.41 1701.01 2237.01 1678.33 2190.81 1642.21C2210.55 1619.53 2226.09 1597.69 2240.37 1571.23C2255.49 1543.09 2262.21 1525.87 2273.13 1486.81L2295.39 1486.81ZM2223.57 1486.81C2213.49 1520.83 2207.19 1535.53 2194.59 1558.21C2183.25 1577.95 2171.07 1594.75 2156.37 1611.13C2140.41 1594.33 2129.07 1579.63 2116.05 1558.63C2101.35 1533.85 2094.63 1518.73 2084.13 1486.81L2223.57 1486.81Z" fill="#000000" opacity="1"/>
<path d="M2617.11 1713.19L2541.93 1713.19C2520.09 1713.19 2510.85 1712.77 2499.51 1711.09L2499.51 1756.03C2513.79 1754.35 2524.71 1753.93 2546.97 1753.93L2723.79 1753.93C2746.47 1753.93 2757.81 1754.35 2771.25 1756.03L2771.25 1711.09C2759.91 1712.77 2748.99 1713.19 2726.73 1713.19L2659.11 1713.19L2659.11 1669.93L2713.29 1669.93C2734.71 1669.93 2745.21 1670.35 2757.39 1672.03L2757.39 1628.77C2745.21 1630.45 2735.97 1630.87 2712.87 1630.87L2659.11 1630.87L2659.11 1596.43L2707.41 1596.43C2732.61 1596.43 2739.33 1596.43 2753.19 1597.69C2751.93 1585.51 2751.51 1570.81 2751.51 1541.41L2751.51 1451.95C2751.51 1426.33 2751.93 1406.59 2753.19 1394.41C2742.69 1396.09 2730.09 1396.51 2699.01 1396.51L2583.09 1396.51C2555.79 1396.51 2542.35 1396.09 2526.39 1394.41C2528.07 1408.27 2528.49 1422.13 2528.49 1450.69L2528.49 1545.61C2527.65 1588.03 2527.65 1588.03 2526.81 1597.69C2539.41 1596.85 2549.07 1596.43 2577.21 1596.43L2617.11 1596.43L2617.11 1630.87L2570.07 1630.87C2545.71 1630.87 2537.31 1630.45 2526.81 1628.77L2526.81 1671.61C2537.73 1670.35 2546.55 1669.93 2570.49 1669.93L2617.11 1669.93L2617.11 1713.19ZM2617.11 1437.25L2617.11 1479.25L2570.49 1479.25L2570.49 1437.25L2617.11 1437.25ZM2659.11 1437.25L2707.83 1437.25L2707.83 1479.25L2659.11 1479.25L2659.11 1437.25ZM2617.11 1514.53L2617.11 1556.95L2570.49 1556.95L2570.49 1514.53L2617.11 1514.53ZM2659.11 1514.53L2707.83 1514.53L2707.83 1556.95L2659.11 1556.95L2659.11 1514.53ZM2430.21 1441.45L2430.21 1523.35L2417.19 1523.35C2404.17 1523.35 2397.87 1522.93 2387.79 1521.25L2387.79 1564.51C2397.45 1562.83 2404.17 1562.41 2416.35 1562.41L2430.21 1562.41L2430.21 1662.37C2401.65 1672.45 2392.83 1675.39 2378.55 1678.33L2389.89 1725.79C2394.09 1724.11 2396.19 1723.27 2398.29 1722.43C2463.39 1695.97 2479.77 1688.83 2516.31 1670.77L2515.05 1626.25C2496.57 1635.49 2491.53 1637.59 2473.89 1645.15L2473.89 1562.41L2483.55 1562.41C2493.21 1562.41 2501.61 1562.83 2510.01 1564.09L2510.01 1521.25C2500.77 1522.93 2494.47 1523.35 2483.55 1523.35L2473.89 1523.35L2473.89 1441.45L2486.49 1441.45C2498.25 1441.45 2507.07 1441.87 2517.57 1443.13L2517.57 1398.19C2507.07 1400.29 2496.99 1400.71 2480.19 1400.71L2420.97 1400.71C2403.75 1400.71 2392.83 1399.87 2382.75 1398.19L2382.75 1443.55C2393.25 1441.87 2400.81 1441.45 2414.25 1441.45L2430.21 1441.45Z" fill="#000000" opacity="1"/>
<path d="M3127.83 1526.29C3150.93 1526.29 3163.53 1527.13 3180.33 1529.23L3180.33 1475.89C3166.05 1477.99 3151.35 1478.83 3127.41 1478.83L3016.11 1478.83C3016.53 1463.29 3016.95 1453.63 3016.95 1436.41C3017.37 1408.27 3017.79 1401.97 3019.89 1387.27L2964.45 1387.27C2966.13 1399.03 2967.39 1411.63 2967.39 1429.27C2967.39 1451.11 2966.97 1457.83 2966.13 1478.83L2863.23 1478.83C2838.45 1478.83 2823.33 1477.99 2810.31 1475.89L2810.31 1529.23C2824.17 1527.13 2836.35 1526.29 2862.81 1526.29L2961.93 1526.29C2951.85 1597.69 2923.71 1644.73 2867.43 1684.63C2846.43 1699.33 2829.63 1708.15 2799.39 1720.33C2812.83 1735.45 2821.65 1748.47 2828.79 1764.43C2870.37 1746.37 2900.61 1726.63 2929.17 1698.49C2962.77 1665.31 2985.03 1629.19 2997.63 1585.93C3013.17 1624.99 3033.75 1658.59 3061.05 1687.57C3090.87 1719.91 3119.85 1741.33 3164.79 1764.43C3175.29 1741.75 3181.17 1732.93 3195.45 1716.13C3145.47 1695.55 3110.61 1671.61 3079.53 1636.33C3051.81 1604.83 3029.55 1564.09 3019.05 1526.29L3127.83 1526.29Z" fill="#000000" opacity="1"/>
<path d="M3393.69 1651.87L3393.69 1714.03C3393.69 1722.43 3390.75 1723.69 3372.27 1723.69C3359.25 1723.69 3340.35 1722.43 3320.19 1719.49C3327.33 1734.61 3329.43 1741.75 3334.05 1764.01C3355.89 1765.27 3369.75 1765.69 3375.21 1765.69C3413.01 1765.69 3427.29 1762.33 3434.43 1751.83C3438.63 1745.95 3439.89 1740.07 3439.89 1725.37L3439.89 1651.87L3549.09 1651.87C3570.93 1651.87 3588.99 1652.71 3601.17 1654.39L3601.17 1607.77C3588.57 1609.87 3570.09 1610.71 3549.51 1610.71L3439.89 1610.71L3439.89 1610.29C3472.65 1590.13 3494.07 1574.59 3523.89 1548.97C3531.87 1542.25 3531.87 1542.25 3539.01 1536.37L3515.91 1510.75C3508.35 1512.01 3500.37 1512.43 3483.99 1512.43L3344.97 1512.43C3326.91 1512.43 3315.15 1512.01 3302.55 1510.33L3302.55 1552.33C3315.99 1551.07 3327.33 1550.65 3344.55 1550.65L3460.05 1550.65C3442.41 1566.19 3428.55 1575.43 3410.49 1584.67L3392.43 1584.67C3393.27 1591.81 3393.69 1599.37 3393.69 1607.77L3393.69 1610.71L3279.45 1610.71C3259.71 1610.71 3242.91 1609.87 3228.63 1607.77L3228.63 1654.39C3241.65 1652.71 3258.03 1651.87 3279.87 1651.87L3393.69 1651.87ZM3281.55 1444.39C3253.41 1444.39 3250.89 1444.39 3231.99 1442.71C3233.25 1453.63 3233.67 1462.45 3233.67 1477.57L3233.67 1516.21C3233.67 1529.23 3233.25 1538.89 3231.57 1548.55L3277.35 1548.55L3277.35 1483.45L3551.19 1483.45L3551.19 1548.55L3596.97 1548.55C3595.71 1538.47 3594.87 1527.97 3594.87 1516.63L3594.87 1477.57C3594.87 1461.61 3595.29 1453.21 3596.55 1442.71C3581.43 1443.97 3573.45 1444.39 3544.89 1444.39L3525.99 1444.39C3535.65 1431.37 3547.83 1412.05 3557.49 1393.99L3512.13 1381.39C3504.99 1401.13 3490.29 1427.59 3477.69 1444.39L3441.99 1444.39C3432.75 1417.51 3430.23 1411.63 3413.01 1379.29L3369.33 1391.47C3381.09 1409.95 3387.81 1424.65 3394.95 1444.39L3350.43 1444.39C3336.57 1417.51 3326.91 1402.39 3312.21 1384.33L3269.79 1396.93C3286.17 1417.51 3291.63 1425.91 3301.29 1444.39L3281.55 1444.39Z" fill="#000000" opacity="1"/>
</g>
</g>
</svg>
