<!--?xml version="1.0" encoding="utf-8"?-->
<!-- Generator: Adobe Illustrator 18.0.0, SVG Export Plug-In . SVG Version: 6.00 Build 0)  -->

<svg version="1.1" id="_x31_0" xmlns="http://www.w3.org/2000/svg" xmlns:xlink="http://www.w3.org/1999/xlink" x="0px" y="0px" viewBox="0 0 512 512" style="width: 48px; height: 48px; opacity: 1;" xml:space="preserve">
<style type="text/css">
	.st0{fill:#374149;}
</style>
<g>
	<path class="st0" d="M501.434,183.184c-0.157-0.535-0.294-1.078-0.454-1.61c-0.898-2.965-1.886-5.883-2.89-8.801
		c-0.375-1.094-0.718-2.203-1.11-3.293c-0.902-2.508-1.882-4.977-2.859-7.45c-0.566-1.438-1.102-2.894-1.699-4.324
		c-0.938-2.258-1.957-4.473-2.957-6.695c-0.707-1.574-1.383-3.16-2.125-4.723c-1.074-2.254-2.223-4.465-3.356-6.687
		c-0.742-1.446-1.445-2.906-2.214-4.336c-1.379-2.57-2.832-5.086-4.294-7.598c-0.59-1.015-1.144-2.043-1.75-3.05
		c-1.992-3.325-4.066-6.594-6.203-9.817c-0.098-0.145-0.187-0.297-0.282-0.442c-20.999-31.55-48.808-58.171-81.339-77.773
		c-0.672-0.406-1.363-0.778-2.039-1.176c-2.859-1.687-5.738-3.348-8.668-4.926c-0.938-0.508-1.898-0.969-2.84-1.461
		c-2.738-1.43-5.48-2.844-8.27-4.176c-0.894-0.426-1.805-0.813-2.703-1.23c-2.914-1.348-5.843-2.676-8.816-3.914
		c-0.582-0.242-1.172-0.461-1.754-0.695c-3.348-1.371-6.719-2.691-10.133-3.918c-0.035-0.016-0.074-0.028-0.114-0.039
		C315.637,5.375,286.629,0.047,256.371,0C114.989-0.203,0.203,114.246,0,255.629c-0.038,25.434,3.692,49.985,10.562,73.184
		c0.161,0.538,0.294,1.078,0.458,1.613c0.894,2.954,1.878,5.863,2.878,8.77c0.383,1.11,0.727,2.23,1.126,3.336
		c0.894,2.492,1.867,4.942,2.839,7.394c0.574,1.457,1.114,2.926,1.715,4.375c0.938,2.254,1.953,4.465,2.953,6.683
		c0.707,1.574,1.387,3.164,2.126,4.723c1.078,2.27,2.234,4.488,3.374,6.718c0.734,1.434,1.434,2.886,2.196,4.309
		c1.382,2.578,2.847,5.11,4.316,7.633c0.582,1,1.129,2.019,1.726,3.011c1.992,3.329,4.07,6.602,6.211,9.829
		c0.094,0.144,0.183,0.293,0.278,0.434c18.734,28.148,42.882,52.366,70.976,71.183c0.164,0.114,0.336,0.215,0.5,0.324
		c3.203,2.133,6.446,4.207,9.742,6.195c1.012,0.614,2.05,1.176,3.07,1.774c2.5,1.461,5,2.918,7.55,4.297
		c1.442,0.778,2.914,1.496,4.371,2.246c2.207,1.137,4.406,2.285,6.649,3.359c1.562,0.75,3.148,1.43,4.722,2.145
		c2.218,1.008,4.426,2.027,6.676,2.973c1.438,0.602,2.898,1.144,4.343,1.718c2.462,0.981,4.922,1.969,7.418,2.875
		c1.094,0.394,2.199,0.738,3.297,1.121c2.91,1.008,5.824,2.004,8.781,2.91c0.543,0.168,1.098,0.309,1.645,0.469
		c23.172,6.938,47.703,10.734,73.129,10.77C397.011,512.206,511.793,397.754,512,256.371
		C512.035,230.938,508.308,206.386,501.434,183.184z M128.051,220.985c0.004-4.329,3.519-7.833,7.843-7.829l69.668,0.102
		c4.324,0.008,7.84-3.492,7.844-7.82l0.086-59.722c0.016-9.817,7.985-17.766,17.805-17.75l49.778,0.07
		c9.816,0.016,17.766,7.988,17.75,17.805l-0.086,59.722c-0.004,4.328,3.496,7.836,7.824,7.844l59.722,0.086
		c9.817,0.016,17.766,7.989,17.75,17.805l-0.07,49.782c-0.016,9.816-7.988,17.766-17.805,17.75l-59.722-0.086
		c-4.328-0.008-7.84,3.492-7.844,7.82l-0.09,59.722c-0.012,9.817-7.985,17.766-17.801,17.75l-49.778-0.07
		c-9.82-0.016-17.766-7.988-17.754-17.805l0.09-59.722c0.004-4.328-3.496-7.836-7.824-7.844l-69.664-0.102
		c-4.328-0.004-7.832-3.515-7.824-7.844L128.051,220.985z" style="fill: rgb(255, 255, 255);"></path>
</g>
</svg>
